<svg width="88" height="88" viewBox="0 0 88 88" fill="none" xmlns="http://www.w3.org/2000/svg">
<path fill-rule="evenodd" clip-rule="evenodd" d="M44 88C55.6695 88 66.8611 83.3643 75.1127 75.1127C83.3643 66.8611 88 55.6695 88 44C88 32.3305 83.3643 21.1389 75.1127 12.8873C66.8611 4.6357 55.6695 0 44 0C32.3305 0 21.1389 4.6357 12.8873 12.8873C4.6357 21.1389 0 32.3305 0 44C0 55.6695 4.6357 66.8611 12.8873 75.1127C21.1389 83.3643 32.3305 88 44 88ZM63.4857 34.2571C63.8572 33.7619 64.1274 33.1983 64.2811 32.5986C64.4347 31.9988 64.4687 31.3747 64.3812 30.7619C64.2936 30.149 64.0862 29.5594 63.7708 29.0267C63.4554 28.494 63.0381 28.0286 62.5429 27.6571C62.0476 27.2857 61.484 27.0154 60.8843 26.8618C60.2846 26.7081 59.6605 26.6741 59.0476 26.7617C58.4347 26.8492 57.8451 27.0566 57.3124 27.372C56.7797 27.6875 56.3143 28.1047 55.9429 28.6L40.348 49.3931L31.6171 40.6686C30.7235 39.8358 29.5415 39.3825 28.3201 39.404C27.0988 39.4256 25.9335 39.9203 25.0698 40.7841C24.2061 41.6478 23.7113 42.8131 23.6898 44.0344C23.6682 45.2558 24.1216 46.4378 24.9543 47.3314L37.5257 59.9029C38.0032 60.3802 38.5776 60.7494 39.21 60.9856C39.8425 61.2217 40.5184 61.3192 41.1918 61.2716C41.8653 61.2239 42.5207 61.0321 43.1136 60.7092C43.7065 60.3863 44.2231 59.9399 44.6286 59.4L63.4857 34.2571Z" fill="#3DDE60"/>
</svg>
