<svg width="88" height="88" viewBox="0 0 88 88" fill="none" xmlns="http://www.w3.org/2000/svg">
<g clip-path="url(#clip0_98_288)">
<path d="M12.8868 75.1136C8.80094 71.0274 5.55992 66.1764 3.34879 60.8376C1.13766 55.4988 -0.000255318 49.7768 4.29697e-08 43.9982C0.000515768 32.3279 4.63703 21.1357 12.8896 12.8839C21.1421 4.63208 32.3347 -0.00344537 44.005 -0.00292964C55.6754 -0.00241392 66.8675 4.6341 75.1193 12.8866C83.3711 21.1392 88.0067 32.3318 88.0062 44.0021C88.0056 55.6724 83.3691 66.8646 75.1166 75.1164C66.864 83.3682 55.6715 88.0037 44.0011 88.0032C32.3308 88.0027 21.1386 83.3662 12.8868 75.1136ZM33.1653 27.3351C32.3829 26.6069 31.3486 26.2103 30.2799 26.2288C29.2111 26.2473 28.1911 26.6793 27.4343 27.4341C26.6795 28.191 26.2474 29.2109 26.229 30.2797C26.2105 31.3484 26.6071 32.3827 27.3353 33.1651L38.1703 44.0001L27.3353 54.8352C26.7923 55.3393 26.3954 55.9807 26.1863 56.6915C25.9772 57.4024 25.9638 58.1565 26.1473 58.8744C26.3309 59.5923 26.7047 60.2473 27.2293 60.7706C27.7539 61.2939 28.41 61.666 29.1283 61.8476C29.8454 62.0314 30.5987 62.0186 31.3091 61.8105C32.0195 61.6024 32.6607 61.2068 33.1653 60.6651L44.0003 49.8302L54.8353 60.6651C55.3395 61.2081 55.9808 61.6051 56.6917 61.8142C57.4026 62.0232 58.1567 62.0367 58.8746 61.8531C59.5924 61.6696 60.2475 61.2958 60.7708 60.7712C61.2941 60.2466 61.6661 59.5905 61.8478 58.8722C62.0316 58.1551 62.0188 57.4017 61.8107 56.6913C61.6026 55.9809 61.207 55.3397 60.6653 54.8352L49.8303 44.0001L60.6653 33.1651C61.2083 32.661 61.6053 32.0196 61.8143 31.3088C62.0234 30.5979 62.0369 29.8438 61.8533 29.1259C61.6698 28.408 61.296 27.753 60.7714 27.2297C60.2467 26.7064 59.5907 26.3343 58.8723 26.1526C58.1553 25.9689 57.4019 25.9817 56.6915 26.1898C55.9811 26.3979 55.3399 26.7935 54.8353 27.3351L44.0003 38.1702L33.1653 27.3351Z" fill="#FF3535"/>
</g>
<defs>
<clipPath id="clip0_98_288">
<rect width="88" height="88" fill="white"/>
</clipPath>
</defs>
</svg>
