<svg width="45" height="45" viewBox="0 0 45 45" fill="none" xmlns="http://www.w3.org/2000/svg">
<path fill-rule="evenodd" clip-rule="evenodd" d="M22.5 0C34.906 0 45 10.094 45 22.501C45 34.907 34.906 45.001 22.5 45.001C14.436 45.001 6.943 40.645 2.943 33.634C1.01268 30.2412 -0.00155205 26.4045 1.78269e-06 22.501C1.78269e-06 10.094 10.094 0 22.5 0ZM22.5 26.293C15.847 26.293 10.433 31.765 10.433 38.492C10.433 38.512 10.423 38.53 10.422 38.551C13.9033 41.173 18.1418 42.5939 22.5 42.6C27.034 42.6 31.208 41.073 34.574 38.531C34.574 38.517 34.566 38.506 34.566 38.492C34.566 31.765 29.153 26.293 22.5 26.293ZM22.5 2.4C11.417 2.4 2.4 11.417 2.4 22.501C2.4 25.992 3.308 29.43 5.027 32.444C5.89108 33.9554 6.94793 35.348 8.171 36.587C9.1 29.436 15.165 23.892 22.5 23.892C29.831 23.892 35.891 29.429 36.827 36.574C40.392 32.945 42.599 27.977 42.599 22.501C42.599 11.417 33.583 2.4 22.5 2.4ZM22.48 7.358L22.649 7.36C23.5214 7.36632 24.3833 7.55059 25.182 7.90153C25.9806 8.25247 26.6993 8.7627 27.294 9.401C27.8899 10.0313 28.3509 10.7766 28.6488 11.5913C28.9466 12.406 29.0749 13.273 29.026 14.139L28.939 15.781C28.8532 17.4317 28.1355 18.9861 26.9347 20.122C25.7338 21.2579 24.1419 21.8881 22.489 21.882H22.416C20.7469 21.8688 19.1479 21.2092 17.9549 20.0419C16.7619 18.8746 16.0676 17.2904 16.018 15.622L15.968 13.977C15.9385 13.1122 16.0859 12.2505 16.4013 11.4447C16.7166 10.6389 17.1933 9.90601 17.802 9.291C18.4006 8.67652 19.1166 8.18873 19.9076 7.85665C20.6985 7.52457 21.5482 7.35499 22.406 7.358H22.481H22.48ZM22.454 9.758H22.407C21.8684 9.75582 21.3348 9.8621 20.8381 10.0705C20.3415 10.2789 19.8918 10.5851 19.516 10.971C19.1347 11.356 18.8361 11.8149 18.6383 12.3194C18.4406 12.8239 18.3479 13.3634 18.366 13.905L18.416 15.55C18.4483 16.5989 18.8859 17.5945 19.6369 18.3275C20.3878 19.0605 21.3936 19.474 22.443 19.481L22.489 19.482C23.527 19.4865 24.527 19.0916 25.2817 18.3789C26.0364 17.6663 26.4881 16.6906 26.543 15.654L26.63 14.012C26.6607 13.4692 26.5801 12.9258 26.3931 12.4152C26.2062 11.9047 25.9169 11.4377 25.543 11.043C25.1692 10.6415 24.7173 10.3205 24.215 10.0999C23.7127 9.87927 23.1706 9.76361 22.622 9.76L22.454 9.758Z" fill="#191E28"/>
</svg>
