<svg width="88" height="88" viewBox="0 0 88 88" fill="none" xmlns="http://www.w3.org/2000/svg">
<path fill-rule="evenodd" clip-rule="evenodd" d="M3.34863 60.8374C5.56006 66.1763 8.80078 71.0273 12.8867 75.1138C21.1387 83.3662 32.3306 88.0029 44.001 88.0034C55.6714 88.0039 66.8643 83.3682 75.1167 75.1162C83.3691 66.8647 88.0059 55.6724 88.0063 44.002C88.0068 32.3315 83.3711 21.1392 75.1191 12.8867C66.8677 4.63428 55.6753 -0.00244137 44.0049 -0.00292965C32.3345 -0.00341793 21.1421 4.63232 12.8896 12.8838C4.63721 21.1357 0.000488438 32.3276 1.57039e-07 43.998C-0.000488124 49.7769 1.1377 55.499 3.34863 60.8374ZM38 23C38 19.6865 40.6865 17 44 17C47.3135 17 50 19.6865 50 23V46C50 49.3135 47.3135 52 44 52C40.6865 52 38 49.3135 38 46V23ZM44 71C47.3135 71 50 68.3135 50 65C50 61.6865 47.3135 59 44 59C40.6865 59 38 61.6865 38 65C38 68.3135 40.6865 71 44 71Z" fill="#FF3535"/>
</svg>
